{"title":"Shelter.2010.COSTOM.SWESUB.DVDRip.XviD.-Zen_Bud","uid":5748089,"size":1470739176,"categoryP":"video","categoryS":"movies","magnet":"?xt=urn:btih:e0b836ba3bcbee2cdb637c8038582f2692a246a9&amp;dn=Shelter.2010.COSTOM.SWESUB.DVDRip.XviD.-Zen_Bud&amp;tr=udp%3A%2F%2Ftracker.openbittorrent.com%3A80&amp;tr=udp%3A%2F%2Fopen.demonii.com%3A1337&amp;tr=udp%3A%2F%2Ftracker.coppersurfer.tk%3A6969&amp;tr=udp%3A%2F%2Fexodus.desync.com%3A6969","seeders":0,"leechers":0,"uploader":"Zen_Bud","files":-1,"time":1281298659,"description":"General\nComplete name                    : Shelter.2010.avi\nFormat                           : AVI\nFile size                        : 1.37 GiB\nDuration                         : 1h 47mn\nOverall bit rate                 : 1 818 Kbps\n\nVideo\n\nFormat                           : MPEG-4 Visual\nCodec ID/Hint                    : XviD\nDuration                         : 1h 47mn\nBit rate                         : 1 359 Kbps\nWidth                            : 716 pixels\nHeight                           : 436 pixels\nDisplay aspect ratio             : 2.35:1\nStream size                      : 1.02 GiB (75%)\nWriting library                  : XviD 1.1.2 (UTC 2006-11-01)\n\nAudio\n\nFormat                           : AC-3\nDuration                         : 1h 47mn\nBit rate                         : 448 Kbps\nChannel(s)                       : 6 channels\nChannel positions                : Front: L C R, Side: L R, LFE\nSampling rate                    : 48.0 KHz\nStream size                      : 346 MiB (25%)\n\n\n                   Text: TRANSLATOR...: GEMiNi X/thx :)\n\n\n","torrent":{"xt":"urn:btih:e0b836ba3bcbee2cdb637c8038582f2692a246a9","amp;dn":"Shelter.2010.COSTOM.SWESUB.DVDRip.XviD.-Zen_Bud","amp;tr":["udp%3A%2F%2Ftracker.openbittorrent.com%3A80","udp%3A%2F%2Fopen.demonii.com%3A1337","udp%3A%2F%2Ftracker.coppersurfer.tk%3A6969","udp%3A%2F%2Fexodus.desync.com%3A6969"],"infoHash":"e0b836ba3bcbee2cdb637c8038582f2692a246a9","infoHashBuffer":{"type":"Buffer","data":[224,184,54,186,59,203,238,44,219,99,124,128,56,88,47,38,146,162,70,169]},"announce":[],"urlList":[]}}